<svg xmlns="http://www.w3.org/2000/svg" width="60" height="60">
    <rect width="58" height="58" x="1" y="1" rx="10" ry="10" fill="#eee" stroke="#a30075" stroke-width="2"/>
    <path fill="#a30075" d="M4 52c4-4 20.12-6 26-6 1.44 0 3.48.12 5.8.32L28.6 19.36c-1.84.8-3.8 2.28-5.2 2.96l.04-16.6A17.52 17.52 90 0126 4.84a24.68 24.68 90 012.8-.56h.04l8.44 14.4c-1.52.12-4.04-.2-6.12 0l7.48 28c6.8.88 14.72 2.68 17.36 5.32H4ZM31.08 4.12a16.8 16.8 90 0116.84 11.8c-1.6.24-3.92-.84-5.36-.44A12.72 12.72 90 0039.2 17.92L31.08 4.12ZM21.44 6.68A16.8 16.8 90 0012.6 25.36c1.44-.52 2.92-2.64 4.4-3.04a17.8 17.8 90 014.4.44l.04-16.08Z"/>
</svg>
