<svg xmlns="http://www.w3.org/2000/svg" width="60" height="60">
    <rect width="58" height="58" x="1" y="1" rx="15" ry="15" fill="#fff" fill-opacity=".5" stroke="#a30075" stroke-width="2"/>
    <path d="M31.818 8.522c-4.26 0-7.681 3.435-7.681 7.66 0 2.994 2.113 5.79 4.574 7.12l-.021 4.078c0 1.032.783 2.29 1.747 2.59l.151.043.13.043.15.043.13.043.151.065.13.043.28.108.28.13.281.13.26.15.258.13.26.15.107.065.13.065.107.065.108.064.108.087.108.064.086.065.087.043.086.087.086.043.065.064.086.044.043.064.065.043c1.433 1.231 2.33 3.062 2.33 5.157 0 3.693-3.057 6.754-6.818 6.754-3.826 0-6.883-3.061-6.883-6.754 0-1.297-1.17-2.567-2.568-2.567-1.13 0-2.13.767-2.395 1.898-.102.466-.065.969-.065 1.468 0 6.686 5.492 12.17 12.278 12.17 6.72 0 12.212-5.484 12.212-12.17 0-3.726-1.614-7.028-4.207-9.257-.465-.4-2.46-1.232-3.56-1.963-1.029-.732-1.058-.916-1.058-2.978 3.46-.699 6.02-3.795 6.02-7.487 0-4.225-3.415-7.66-7.638-7.66zm0 3.603c2.115 0 3.863 1.79 3.863 3.906 0 2.17-1.748 3.84-3.863 3.84h-.194l-.194-.021-.194-.022-.194-.021-.195-.044-.194-.064-.172-.043-.195-.065-.172-.086-.173-.087-.15-.086-.174-.108-.15-.086-.152-.13-.15-.108-.13-.129-.13-.13-.13-.15-.129-.13-.107-.151-.087-.151-.108-.173-.086-.172-.086-.173-.065-.173-.065-.172-.043-.194-.065-.173-.021-.194-.022-.194-.021-.195v-.215c0-2.116 1.778-3.906 3.948-3.906z" fill="#a30075" fill-rule="nonzero" stroke="#000" stroke-width="0"/>
</svg>
