<svg xmlns="http://www.w3.org/2000/svg" width="60" height="60">
    <path d="M15.93 1h28.14C52.341 1 59 7.659 59 15.93v28.14C59 52.34 52.341 59 44.07 59H15.93A14.897 14.897 0 0 1 1 44.07V15.93C1 7.659 7.66 1 15.93 1z" fill="#fff" fill-opacity=".50196078" stroke="#a30075" stroke-width="2.00025845"/>
    <path d="M18.43 4.926 14.9 8.488l3.531 3.5c.266.24.484.505.688.782l-.782 6.156-6.125.844c-.157-.113-.32-.21-.468-.344-.124-.111-.264-.22-.375-.344v-.031h-.032l-3.5-3.5-3.53 3.531 3.343 3.313c.232.257.493.518.75.75 2.996 2.704 7.224 3.238 10.719 1.718.095.123.168.262.28.375l26.47 26.47a3.73 3.73 0 0 0 5.28 0 3.73 3.73 0 0 0 0-5.282L24.68 19.957c-.122-.122-.242-.21-.375-.312 1.577-3.737.758-8.232-2.312-11.157z" fill="#a30075"/>
</svg>
