<svg xmlns="http://www.w3.org/2000/svg" width="60" height="60">
    <rect width="58" height="58" x="1" y="1" rx="10" ry="10" fill="#fff" fill-opacity=".5" stroke="#a30075" stroke-width="2"/>
    <path fill="#a30075" d="M60 60H0M6.908 45.904V43.808h4.08V20.168l-2.092.944V18.78l22.02-9.596 21.62 9.28v2.42L50.32 19.832V43.796H54.5v2.14Zm41.06-2.132V19.012L30.84 11.62 13.408 19.132v24.64Zm-17.672-.9-1.62-.48-8.536-4.508-3.004-4.688c4.38-1.692 8.512-2.424 13.16-2.764Zm.952-.032V30.312c4.72.332 9.024 1.168 13.112 2.944l-2.704 4.688-8.716 4.448ZM16.784 32.364c10.668-3.892 17.764-3.844 28.132.084 1.808-3.232 2.296-3.428-3.276-4.904L39.124 19.8H22.52l-2.372 7.796c-6.584 1.208-4.6 1.888-3.484 4.452Zm23.224-5.132c-6.152-1.588-10.916-2.036-18.112.048l1.788-6.052H38.268Z" />
</svg>
