<svg xmlns="http://www.w3.org/2000/svg" width="60" height="60">
    <rect width="58" height="58" x="1" y="1" rx="15" ry="15" fill="#eee" stroke="#a30075" stroke-width="2"/>
    <path fill="#a30075" d="M42.37 29.5V48.79H16.63V29.5H42.37m0-3.21H16.63c-1.92 0-3.21 1.59-3.21 3.21V48.79c0 1.59 1.29 3.21 3.21 3.21H42.37c1.92 0 3.21-1.62 3.21-3.21V29.5c0-1.62-1.29-3.21-3.21-3.21ZM29.5 16.63 21.46 7l-8.04 9.63h6.45v6.45h3.21V16.63zm9.63-3.21V7H35.92v6.42H29.5l8.04 9.66 8.04-9.66zM29.5 48.79c-1.92 0-3.21-1.29-3.21-3.21V39.13c0-1.59 1.29-3.21 3.21-3.21 1.62 0 3.21 1.29 3.21 3.21v6.45c0 1.92-1.29 3.21-3.21 3.21Zm6.42-6.42H23.08V39.13l3.21-3.21h6.42l3.21 3.21zM26.5 32.71a3 3 90 106 0 3 3 90 10-6 0z" />
</svg>
