<svg xmlns="http://www.w3.org/2000/svg" width="60" height="60">
    <rect width="58" height="58" x="1" y="1" rx="16" ry="16" fill="#fff" fill-opacity=".5" stroke="#a30075" stroke-width="2"/>
    <path fill="#a30075" d="M17.42 8.21c-3.75 0-6.42 2.55-6.42 6.42V50H33.5V24.68s2.82-.39 2.82 2.82V40.37c0 6.42 6 6.81 6.81 6.81.9 0 6.84-.39 6.84-6.81V27.5s4.47.06 4.41-9.54h-2.4V11.54c0-1.83-2.4-1.83-2.4-.12v6.45H46.37V11.42c0-1.74-2.43-1.74-2.43 0v6.45h-2.4c.03 9.6 4.41 9.63 4.41 9.63V40.37c0 2.79-2.46 2.79-2.82 2.79-.33 0-2.79-.12-2.79-2.79V27.5c0-4.11-3.63-6.84-6.84-6.84V14.63c0-3.93-2.61-6.42-6.42-6.42H17.42Zm3.12 6.42h8.85l-5.52 8.58H30.5L18.32 40.37H16.13L20.54 27.5H15.02l5.52-12.87Z"/>
</svg>
