<svg xmlns="http://www.w3.org/2000/svg" width="60" height="60">
    <rect width="58" height="58" x="1" y="1" rx="10" ry="10" fill="#eee" stroke="#a30075" stroke-width="2"/>
    <path fill="#a30075" d="M36.8 35.5875c-1.3125 0-2.3875-1.075-2.3875-2.3875s1.075-2.375 2.3875-2.375c1.325 0 2.4 1.0625 2.4 2.375s-1.075 2.3875-2.4 2.3875ZM59.7375 52.75V22.2625C33.4875 22.0125 21.35 32.85 21.35 32.85c-.1125.1125.2.275.2.4625a.6125.6125 90 00.3125.5625l10.1125 4.8c.425.225.6.5.6.9 0 .55-.4625.9875-1.0125.9875l-11.225-.0125c-.2125 0-.4875.175-.4875.375l-.0875.2625C31.125 50.2625 46 52.95 59.75 52.75ZM17.4838 11.3287V8.6036h1.625v2.6926c1.625.4388 2.08 1.6088 2.08 2.9575 0 1.3325-.455 2.47-2.08 2.9088V36.2888c0 3.5587-3.055 6.4513-6.6463 6.4513-3.575 0-6.63-2.8925-6.63-6.4513 0 0-.195-1.17.585-2.9738l2.5675-5.8663.9913 8.71-1.5437-1.43-.1463-.1463c-.2275.52-.2438 1.105-.2438 1.7062 0 2.4537 2.1775 4.4363 4.6312 4.4363 2.4863 0 4.8262-1.9663 4.8262-4.4363V17.195c-1.625-.4387-2.1125-1.6088-2.1125-2.9575s.4875-2.5188 2.1125-2.9087Z"/>
</svg>
