<svg xmlns="http://www.w3.org/2000/svg" width="60" height="60">
    <rect width="58" height="58" x="1" y="1" rx="10" ry="10" fill="#fff" fill-opacity=".5" stroke="#a30075" stroke-width="2"/>
    <path d="m28.635 40.01.595-3.01H16.77l1.155 5.705c1.68 1.4 3.395 1.225 5.075-.455 1.89-1.89 3.745-2.625 5.635-2.24M33.5 9v3.5H37c3.85 0 7 3.15 7 7V51h-7V19.5H26.5v7h1.75c.98 0 1.75.77 1.75 1.75V30H16v-1.75c0-.98.77-1.75 1.75-1.75H19.5v-7c0-3.5 3.5-7 7-7H30V9H24.75C23.77 9 23 8.23 23 7.25s.77-1.75 1.75-1.75h14c.98 0 1.75.77 1.75 1.75S39.73 9 38.75 9zm-21 24.5h21l-2.94 14.7c-.315 1.61-1.75 2.8-3.43 2.8H18.87c-1.68 0-3.115-1.19-3.43-2.8z" fill="#a30075" fill-opacity="1" stroke="none"/>
</svg>
