<svg xmlns="http://www.w3.org/2000/svg" width="60" height="60">
    <rect width="58" height="58" x="1" y="1" rx="16" ry="16" fill="#fff" fill-opacity=".5" stroke="#a30075" stroke-width="2"/>
    <path d="M30.563 20.486c0 .597-.472 1.062-1.074 1.062H18.251a1.054 1.054 0 0 1-1.074-1.062v-9.477c0-.598.469-1.063 1.074-1.063h11.238c.602 0 1.074.465 1.074 1.063zm13.102 1.21c-1.422-.312-1.938-1.043-1.938-1.715v-2.449s.946.211 1.172.27c.461.121.754.828.766 1.445.015.617 0 2.45 0 2.45m2.863 14.88c0-.024-.395-3.009-.395-3.009v-13.78c0-1.477-.484-2.677-1.484-3.684l-6.383-6.352c-.441 0-1.66 1.215-1.66 1.215 0 .442 3.168 3.586 3.168 3.586L39.68 19.9a3.443 3.443 0 0 0 3.45 3.437l.855.012-.305 10.219.426 3.504 1.918 10.34c.07 1.68-1.465 2.68-2.676 2.68-1.12 0-2.422-.927-2.422-2.122l.024-18.12a3.994 3.994 0 0 0-3.992-3.993h-3.852c.27-.015.281-11.867.281-14.383v-.465a3.9 3.9 0 0 0-3.898-3.89H18.25a3.9 3.9 0 0 0-3.899 3.89v41.074l19.035.317.02-23.996H37c.824 0 1.496.672 1.496 1.496v18.07c0 2.426 2.265 4.551 4.851 4.551 2.442 0 5.176-1.941 5.176-4.55-.043-.603-1.996-11.396-1.996-11.396" fill="#a30075"/>
</svg>
