<svg xmlns="http://www.w3.org/2000/svg" width="60" height="60">
    <rect width="58" height="58" x="1" y="1" rx="10" ry="10" fill="#fff" fill-opacity=".5" stroke="#a30075" stroke-width="2"/>
    <path fill="#a30075" d="M54.02 50.08V45.66c-1.05 0-2.06-.24-2.95-.64-.93-.43-1.96-.68-3.05-.68-1.08 0-2.12.25-3.04.67-.9.4-1.91.64-2.96.64s-2.06-.24-2.96-.64a7.2 7.2 0 00-3.04-.68c-1.08 0-2.12.25-3.05.67-.89.4-1.9.64-2.95.64-1.04 0-2.06-.24-2.95-.64a7.2 7.2 0 00-3.04-.68c-1.09 0-2.13.25-3.05.67-.89.4-1.9.64-2.95.64-1.06 0-2.07-.24-2.97-.64a7.2 7.2 0 00-3.04-.68c-1.08 0-2.12.25-3.04.67-.89.4-1.9.64-2.95.64v4.42c1.04 0 2.05-.24 2.95-.64a7.2 7.2 0 016.08-.01c.9.41 1.91.64 2.96.64 1.04 0 2.05-.24 2.95-.64.91-.43 1.95-.68 3.04-.68 1.08 0 2.11.24 3.04.67.89.41 1.9.64 2.95.64 1.04 0 2.06-.24 2.95-.64a7.2 7.2 0 016.09-.01c.9.41 1.91.64 2.96.64s2.06-.24 2.96-.64a7.2 7.2 0 016.09-.01c.89.41 1.9.64 2.95.64ZM6 41.18v-10H8.65s-.81-.82.1-2.72l5.35-9.15s2.01-4.36 6.73-1.73l6.82 3.76 2.87-4.67c1.77-2.91 5.55-.59 3.77 2.31l-4.1 6.67s-1.27 2.22-3.72.64l-4.09-2.36-3.73 6.25 1.55.91H38.72s4.04-.17 5.04-4.21l.91-.1c4.48 0 8.11 3.63 8.11 8.1a8.07 8.07 0 01-2.14 5.46c-.81-.31-1.71-.49-2.64-.49a7.2 7.2 0 00-3.04.68c-.9.41-1.91.64-2.96.64s-2.06-.24-2.96-.64A7.2 7.2 0 0036 39.85a7.3 7.3 0 00-3.05.68c-.89.41-1.9.64-2.95.64-1.04 0-2.06-.24-2.95-.64a7.2 7.2 0 00-3.04-.68 7.2 7.2 0 00-3.05.68c-.89.41-1.9.64-2.95.64-1.06 0-2.07-.24-2.97-.64-.91-.43-1.96-.68-3.04-.68s-2.13.25-3.05.68c-.9.4-1.95.64-2.95.64ZM22.44 16.89c-2.46 0-4.45-2-4.45-4.45S19.98 8 22.44 8a4.445 4.445 0 110 8.89"/>
</svg>
