<svg xmlns="http://www.w3.org/2000/svg" width="60" height="60">
    <rect width="58" height="58" x="1" y="1" rx="10" ry="10" fill="#fff" fill-opacity=".5" stroke="#a30075" stroke-width="2"/>
    <path d="m27.578 13.746 9.29-.013a1.778 2.133 0 0 1 1.804 2.146l-.01 5.796 5.358.009-.01-2.341 9.09 4.484-9.087 4.471-.009-2.34h-7.122a1.778 2.133 0 0 1-1.773-2.146l-.021-5.833-5.729.03-.005 7.06 4.49.014a1.189 1.427 0 0 1 .011 2.824l-4.49.024.003 9.178.558-.003.013-4.793 9.754-.016-.01 5.649-1.322 2.422-3.592.02a1.78 2.137 0 0 1-1.514.974l-5.667-.007a1.778 2.133 0 0 1-1.773-2.109l-.011-11.333-2.756.015-4.253 5.3-.37.41-.496.003-8.422.008 9.016 9.724 26.352.007 5.961-3.934-.018-4.904-7.215.001a1.192 1.43 0 0 1-.01-2.861l8.422.03 1.177-.007.005 1.412-.004 7.171.003.855-.618.375-6.857 4.533-.247.187-.31.002-27.095-.003-.464.002-.342-.37L5.635 33.262l-2.301-2.44 3.096-.017 10.993.015 4.254-5.3.37-.447.495-.003 3.283.02-.004-9.216a1.778 2.133 0 0 1 1.757-2.127z" fill="#a30075" fill-opacity="1" stroke="none"/>
</svg>
