<svg xmlns="http://www.w3.org/2000/svg" width="60" height="60">
    <rect width="58" height="58" x="1" y="1" rx="10" ry="10" fill="#fff" fill-opacity=".5" stroke="#a30075" stroke-width="2"/>
    <path d="m28.375 9.906-5.562 3.875-9.97-2.719c-.044.17-2.018 7.85 9.626 11.313l30.406 8.313 2.188-8.157-30.25-8.281 5.468-3.875zM5.094 20.656v1.813l21.562 5.937a7 7 0 0 1 1.313-1.437zm27.187 6.407a5.12 5.12 0 0 0-5.125 5.125c0 2.035 1.215 3.79 2.938 4.624l-25-6.906.062 18.157c1.07 0 2.1-.236 3.032-.657.948-.438 2.045-.718 3.156-.718 1.116 0 2.176.28 3.125.718.93.42 1.956.657 3.031.657 1.08 0 2.138-.236 3.063-.657.942-.438 2.008-.718 3.125-.718 1.11 0 2.201.28 3.156.718.924.42 1.95.657 3.031.657 1.08 0 2.138-.236 3.063-.657.954-.438 2.008-.718 3.124-.718s2.17.28 3.126.718c.93.42 1.981.657 3.062.657 1.087 0 2.1-.236 3.031-.657.949-.438 2.04-.718 3.157-.718s2.17.28 3.124.718c.925.42 1.945.657 3.032.657l-.032-4.5-22.78-6.282c.167.018.331.063.5.063 2.833 0 5.156-2.323 5.156-5.157s-2.323-5.124-5.157-5.124m6.407 2.843a6.7 6.7 0 0 1 .406 1.938l12.875 3.562.437-1.687zm-6.376.063c1.231 0 2.22.988 2.22 2.218 0 1.231-.989 2.22-2.22 2.22-1.23 0-2.25-.989-2.25-2.22 0-1.23 1.02-2.218 2.25-2.218" fill="#a30075"/>
</svg>
