<svg xmlns="http://www.w3.org/2000/svg" width="60" height="60">
    <path d="M29.99 4.996c-13.807 0-25 11.194-25 25 0 13.807 11.193 25 25 25s25-11.194 25-25c0-13.807-11.193-25-25-25M16.318 16.402l3.177.026 3.203.026L26.5 27.6c2.094 6.121 3.838 11.12 3.88 11.12.044 0 .117-.107.157-.234s1.711-5.14 3.698-11.146l3.594-10.938h3.098c1.7 0 3.075.04 3.073.078s-2.38 6.77-5.312 14.948l-5.339 14.87-3.15.026c-2.938.023-3.17-.005-3.23-.156-.036-.09-2.399-6.687-5.26-14.688-2.863-8-5.259-14.677-5.313-14.817z" fill="#a30075" stroke="none"/>
</svg>
