<svg xmlns="http://www.w3.org/2000/svg" width="120" height="120">
    <path d="M13.506 92.031h43.95l1.413-79.75h2.125l.35 16.325 17.375-8.175-.1 7.1.25 7.088.85 7.037 1.7 6.875 2.512 6.65 3.113 6.388 3.575 6.162 4.287 5.625 4.375 4.488-36.875 7.087v7.1h44.3l-4.8 5.275-5.05 4.988-5.462 4.437-6.1 3.638-6.588 2.775-6.95 1.925-7.112 1.05-7.163.175-7.087-.688-6.925-1.575-6.725-2.475-6.375-3.312-5.838-4.113-5.162-4.887-4.488-5.45zm10.988-3.912-.45-7.125-.075-7.075.687-7.013 1.688-6.875 2.55-6.662 3.262-6.388 3.875-6 4.538-5.45 5.25-4.7 5.8-4.1 3.7-2.4-3.825 5.988-3.3 6.25-2.45 6.662-1.588 6.95-.8 7.088.038 7.087.95 7.013 1.412 6.475zm-13.113.375L8.27 82.106 5.644 75.57l-1.688-6.863-.712-7.112.275-7.175 1.212-7.075 2.088-6.875 2.937-6.55 3.725-6.113 4.475-5.6 5.125-4.987 5.738-4.288 6.25-3.575 6.662-2.725 7.013-1.887 7.2-.963 7.287-.075 7.238.825 7.05 1.713 6.737 2.6 6.275 3.5 5.738 4.3 5.137 5.037 4.488 5.663 3.825 6.187 3.05 6.613 2.225 6.937 1.375 7.113.387 7.15-.65 7.012-1.712 6.813-2.538 6.612-2.937 6.513-.088.2h-5.662l3.187-6.4 2.75-6.525 1.825-6.8.763-7.088-.35-7.175-1.325-7.112-2.288-6.85-3.175-6.488-4.012-5.95-4.775-5.362-5.488-4.6-6.1-3.8-6.612-2.9-6.925-1.975-7.175-.975-7.238.05-7.15 1.087-6.95 2.075-6.587 2.975-6.075 3.863-5.463 4.662-4.712 5.388-3.913 5.987-3.125 6.5-2.287 6.85-1.35 7.113-.375 7.175.712 7.062 1.888 6.788 2.825 6.5 3.025 5.925z" fill="#a30075" fill-opacity="1" fill-rule="evenodd" stroke="none"/>
</svg>
