<svg xmlns="http://www.w3.org/2000/svg" width="120" height="120">
    <path d="m57.063 3.531-7.25.75-7.126 1.657-6.812 2.468-6.344 3.344-5.687 4.156-4.907 4.969-4.25 5.563-3.78 6.03-3.563 6.22 4.25 2.468 1.594-2.656L17 32.438l4.125-5.75 4.719-5.188 5.437-4.437 6.188-3.532 6.718-2.625 7.126-1.656 7.343-.656 7.375.344 7.25 1.343 6.906 2.344 6.344 3.25 5.625 4.156L96.937 25l4.032 5.688 3.469 6.125 3.093 6.53L110.47 50l5.656 4.281-1.25-6.593-1.812-6.844-2.72-6.625L106.72 28l-4.438-5.687-5.187-5.125-5.75-4.375-6.281-3.594L78.406 6.5 71.47 4.625l-7.156-.969zM6.28 42.22l-1.56 7.155-1.063 7-.156 6.969.906 6.968 1.5 7 26.25-14.53 6.063 3.562 6.187 3.531L50.75 73l6.656 2.438 6.938 1.5 7.094.656 7.187-.063 7.156-.844 6.906-1.718 6.532-2.656 6.062-3.594 5.688-4.219 5.531-4.562-5.312-4.376-5.688-4.187-6.094-3.5-6.562-2.594-6.938-1.687-7.156-.907-7.187-.156-7.126.563-6.937 1.468L50.906 47l-6.343 3.25-6.22 3.438-6.187 3.437zM94.5 55c2.76 0 5 2.24 5 5s-2.24 5-5 5-5-2.24-5-5 2.24-5 5-5m22 10.281-6.031 4.594-1.313 3.719-2.562 6.687-3 6.406-3.781 5.876-4.75 5.218-5.626 4.5-6.28 3.656-6.75 2.72-6.97 1.75-7.093.78-7.157-.187-7.062-1.187-6.906-2.094-6.594-3.031-6.062-3.876-5.282-4.687-4.468-5.469-3.782-6-3.437-6.281-4.25 2.469.406.875 3.281 6.312 3.75 6 4.5 5.438 5.313 4.781 5.937 4.063 6.407 3.312 6.78 2.438 7 1.687 7.126.719 7.156-.156 7.031-1.063 6.844-2 6.531-2.844 6.219-3.625 5.719-4.344 5.125-5.03 4.375-5.594 3.375-6.157 2.562-6.562 2-6.844z" fill="#a30075" fill-opacity="1" fill-rule="evenodd" stroke="none"/>
</svg>
