<svg xmlns="http://www.w3.org/2000/svg" width="120" height="120">
    <path fill="none" stroke="#a30075" stroke-linejoin="round" stroke-width="6" d="M115.428 60.567c0 30.019-24.357 54.375-54.375 54.375S6.678 90.586 6.678 60.567 31.035 6.192 61.053 6.192s54.375 24.356 54.375 54.375z"/>
    <path fill="#a30075" stroke="#a30075" stroke-width="3.676" d="M61 20.875c-4.703 0-8.5 3.402-8.5 7.625 0 3.59 2.749 6.592 6.469 7.406v3l-12.032-.125v3.625H59l-1.125 47.75c-8.515-.674-16.14-3.844-21.625-8.562l3.219-2.813L26.844 69.5l2.593 18.063 4.813-4.188A36.42 36.42 0 0 0 57.844 95.25l.562 5.188h5.782l.562-5.188a36.2 36.2 0 0 0 15.938-5.406c2.953-1.853 5.433-3.885 7.593-6.281l4.313 4L95.75 69.75l-12.625 9.031 3.125 2.875c-5.47 4.677-13.014 7.825-21.469 8.5l-1.156-47.75h12.031v-3.625l-12.375.063v-2.969c3.591-.899 6.219-3.867 6.219-7.375 0-4.222-3.805-7.625-8.5-7.625zm.024 1.046c3.639-.1 7.16 2.808 7.16 6.586 0 3.68-3.014 6.397-6.958 6.397-3.843 0-6.955-3.023-7.056-6.397-.098-3.272 3.213-6.484 6.854-6.586z"/>
    <path fill="none" d="m95.764 69.738-3.16 17.809-4.33-4.002c-2.16 2.397-4.62 4.43-7.574 6.282a36.26 36.26 0 0 1-15.945 5.41l-.561 5.211h-5.775l-.577-5.212a36.42 36.42 0 0 1-23.595-11.869l-4.81 4.183-2.581-18.055 12.629 9.302-3.217 2.8c5.485 4.718 13.082 7.871 21.597 8.546l1.139-47.735H46.95v-3.615l12.028.131V35.92c-3.72-.819-6.483-3.825-6.483-7.414 0-4.223 3.81-7.64 8.512-7.64 4.695 0 8.507 3.417 8.507 7.64 0 3.508-2.64 6.471-6.23 7.37v2.955l12.382-.042v3.615H63.614l1.162 47.735c8.456-.675 15.995-3.804 21.465-8.48l-3.11-2.867 12.63-9.055zM65.07 28.505c0-2.008-1.814-3.638-4.05-3.638s-4.05 1.63-4.05 3.638c0 2.01 1.814 3.64 4.05 3.64s4.05-1.631 4.05-3.64"/>
    <ellipse cx="160.02" cy="69.003" fill="none" rx="11.553" ry="10.449" transform="matrix(.35059 0 0 .34828 4.916 4.474)"/>
</svg>
