<svg xmlns="http://www.w3.org/2000/svg" width="54" height="54">
    <path fill="none" stroke="#000" stroke-width="2" d="M2 52h50V2H2Z"/>
    <path d="m4.42 29.61-.04-.12c0-.1.07-.18.17-.18l4.86.01c.25 0 .44-.2.44-.45 0-.19-.09-.32-.27-.43l-4.41-2.23a.32.32 0 0 1-.13-.26c0-.08.03-.17.08-.22 0 0 11.58-10.89 37.21-.33l7.04-3.65q.105-.06.24-.06c.29 0 .54.26.54.57 0 .12-.03.22-.08.3l-4.15 5.49 4.15 5.49c.05.08.08.19.08.3 0 .32-.25.59-.54.59q-.135 0-.24-.06l-7.04-3.66s-24.5 10.36-37.89-1.09Zm7.82-2.24c.93 0 1.67-.79 1.67-1.77 0-1-.74-1.78-1.67-1.78-.92 0-1.66.79-1.66 1.79 0 .98.74 1.77 1.66 1.77Z"/>
</svg>
