<svg xmlns="http://www.w3.org/2000/svg" width="120" height="120">
    <path fill="#a30075" d="M60 .063c-15.859 0-31.55 6.487-42.687 17.625C6.182 28.818-.175 44.359-.062 60c-.113 15.64 6.244 31.181 17.375 42.313C28.449 113.45 44.14 119.937 60 119.937s31.52-6.487 42.656-17.624C113.787 91.18 120.175 75.64 120.063 60c.112-15.64-6.276-31.181-17.407-42.312C91.52 6.55 75.86.063 60 .063m-.125 3.875L45 60l14.875 56.063c-14.614-.035-29.202-6.077-39.531-16.407C9.985 89.297 3.95 74.636 4.062 60c-.11-14.637 5.923-29.297 16.282-39.656C30.674 10.014 45.26 3.972 59.875 3.938m.25 0c14.614.034 29.202 6.076 39.531 16.406C110.015 30.703 116.05 45.364 115.937 60c.112 14.637-5.922 29.297-16.28 39.656-10.33 10.33-24.918 16.372-39.532 16.407L75 60z"/>
</svg>
