<svg xmlns="http://www.w3.org/2000/svg" width="140" height="140">
    <path d="M182 141c0 22.644-18.356 41-41 41s-41-18.356-41-41 18.356-41 41-41 41 18.356 41 41" transform="translate(-71 -71)" fill="#81c3e2"/>
    <path d="M67.844 26.875c-.49.495-.85 1.464-.844 2.156s.386 1.642.875 2.125c.49.483 1.437.848 2.125.844s1.64-.381 2.125-.875.85-1.464.844-2.156-.39-1.644-.875-2.125S70.688 25.999 70 26c-.688 0-1.667.38-2.156.875M52.156 30c-.49.492-.88 1.46-.875 2.156s.417 1.646.907 2.125c.489.48 1.406.845 2.093.844.688 0 1.667-.38 2.157-.875.489-.495.85-1.464.843-2.156-.006-.692-.385-1.642-.875-2.125s-1.437-.848-2.125-.844-1.635.383-2.125.875m31.375 0c-.487.491-.852 1.436-.844 2.125.01.69.42 1.641.907 2.125s1.407.877 2.094.875 1.639-.414 2.124-.906.88-1.434.876-2.125-.417-1.646-.907-2.125c-.489-.48-1.406-.845-2.094-.844-.687 0-1.668.384-2.156.875m13.313 8.875c-.49.492-.881 1.46-.875 2.156s.417 1.646.906 2.125 1.409.85 2.094.844 1.639-.414 2.125-.906c.485-.492.88-1.434.875-2.125s-.417-1.646-.906-2.125-1.41-.847-2.094-.844-1.636.383-2.125.875m-57.969.031c-.487.488-.88 1.434-.875 2.125.004.691.419 1.641.906 2.125s1.407.878 2.094.875c.687-.002 1.64-.414 2.125-.906s.88-1.434.875-2.125c-.004-.691-.417-1.645-.906-2.125s-1.41-.846-2.094-.844-1.638.388-2.125.875m66.875 13.282c-.486.491-.88 1.433-.875 2.124.004.692.417 1.646.906 2.126s1.41.846 2.094.843c.683-.002 1.638-.387 2.125-.875.487-.487.88-1.434.875-2.125-.004-.691-.419-1.64-.906-2.125-.488-.484-1.407-.877-2.094-.875s-1.64.415-2.125.907m-75.781.03c-.486.496-.848 1.438-.844 2.126s.386 1.642.875 2.125c.49.483 1.437.848 2.125.843.688-.004 1.636-.383 2.125-.874.49-.492.883-1.466.875-2.157s-.42-1.614-.906-2.093c-.486-.48-1.403-.876-2.094-.876-.691.001-1.67.411-2.156.907m78.906 15.657c-.486.492-.807 1.782-.875 2.125s-.07-.308 0 .031c.07.34.836 1.754.906 2.094s-.192-.253 0 .031 1.41.847 2.094.844 1.93-.585 2.125-.875c.194-.29-.068.312 0-.031s.88-1.434.875-2.125c-.004-.691-.419-1.641-.906-2.125s-1.407-.878-2.094-.875c-.687.002-1.64.414-2.125.906m-82 .031c-.486.492-.88 1.434-.875 2.125.004.691.417 1.646.906 2.125s1.41.847 2.094.844 1.637-.388 2.125-.875.88-1.434.875-2.125c-.004-.691-.419-1.641-.906-2.125S29.687 66.998 29 67s-1.64.414-2.125.906M30 83.594c-.486.492-.88 1.434-.875 2.125.004.691.417 1.645.906 2.125s1.41.846 2.094.844 1.638-.388 2.125-.876c.487-.487.88-1.433.875-2.124-.004-.692-.419-1.642-.906-2.126-.488-.483-1.407-.877-2.094-.874-.687.002-1.64.414-2.125.906m75.75-.031c-.49.491-.881 1.46-.875 2.156.006.695.417 1.645.906 2.125s1.41.846 2.094.844 1.636-.384 2.125-.876c.49-.491.881-1.46.875-2.156-.006-.695-.417-1.645-.906-2.125s-1.41-.846-2.094-.844-1.636.384-2.125.876M38.875 96.875c-.49.492-.881 1.46-.875 2.156s.417 1.646.906 2.125 1.406.845 2.094.844c.688 0 1.667-.38 2.156-.875s.85-1.464.844-2.156-.386-1.642-.875-2.125c-.49-.483-1.437-.848-2.125-.844s-1.636.383-2.125.875m58 0c-.487.487-.88 1.434-.875 2.125.004.691.419 1.641.906 2.125s1.407.877 2.094.875 1.64-.414 2.125-.906.88-1.434.875-2.125c-.004-.691-.417-1.646-.906-2.125S99.684 95.997 99 96s-1.638.388-2.125.875m-44.687 8.906c-.486.492-.88 1.434-.876 2.125s.417 1.646.907 2.125c.489.48 1.41.847 2.093.844.684-.003 1.638-.388 2.126-.875.487-.487.879-1.434.874-2.125-.004-.691-.418-1.641-.906-2.125-.487-.484-1.407-.877-2.093-.875-.687.002-1.64.414-2.126.906m31.374 0c-.485.492-.879 1.434-.874 2.125.004.691.416 1.646.906 2.125.489.48 1.41.847 2.094.844s1.635-.383 2.124-.875.883-1.465.876-2.156-.421-1.614-.907-2.094c-.485-.48-1.407-.877-2.094-.875s-1.639.414-2.124.906m-15.687 3.094c-.49.492-.881 1.46-.875 2.156s.417 1.646.906 2.125 1.41.847 2.094.844 1.636-.383 2.125-.875.881-1.46.875-2.156-.417-1.646-.906-2.125-1.41-.847-2.094-.844-1.636.383-2.125.875" fill="#000" fill-opacity="1" fill-rule="evenodd" stroke="none" stroke-width="6" stroke-linecap="round" stroke-linejoin="round" stroke-dasharray="0,16.1" stroke-dashoffset="0" stroke-opacity="1"/>
    <path d="M40 70h60M70 40v60" fill="none" stroke="#000" stroke-width="6" stroke-linecap="round" stroke-linejoin="round"/>
</svg>
