<svg xmlns="http://www.w3.org/2000/svg" width="180" height="180">
    <path d="M90.503 16.74c-7.767 0-14.07 6.303-14.07 14.07 0 6.464 4.359 11.92 10.3 13.567v5.444l-20.476-.084v6.658h19.932l-1.926 87.896c-13.989-1.256-26.46-7.007-35.51-15.62l5.15-5.276-20.895-16.666 5.235 32.788 7.16-7.37c3.573 4.401 7.64 8.152 12.52 11.558 8.256 5.76 17.293 9.02 26.382 9.966l.921 9.59h9.548l.963-9.59c14.705-1.577 28.738-9.15 39.027-21.859l7.957 7.705 4.27-33.249-20.895 17.127 5.318 5.15c-9.076 8.697-21.632 14.497-35.719 15.746l-1.884-87.896h19.932v-6.658l-19.89.251v-5.527c6.153-1.503 10.72-7.038 10.72-13.651 0-7.767-6.304-14.07-14.07-14.07m-.017 7.37c3.698 0 6.7 3.001 6.7 6.7 0 3.698-3.002 6.7-6.7 6.7a6.7 6.7 0 0 1-6.7-6.7c0-3.699 3.001-6.7 6.7-6.7" fill="#a30075" fill-rule="evenodd"/>
</svg>
